<?xml version="1.0" standalone="no"?>
<!DOCTYPE svg PUBLIC "-//W3C//DTD SVG 20010904//EN"
 "http://www.w3.org/TR/2001/REC-SVG-20010904/DTD/svg10.dtd">
<svg version="1.0" xmlns="http://www.w3.org/2000/svg"
 width="400.000000pt" height="400.000000pt" viewBox="0 0 400.000000 400.000000"
 preserveAspectRatio="xMidYMid meet">
<metadata>
Created by potrace 1.11, written by Peter Selinger 2001-2013
</metadata>
<g transform="translate(0.000000,400.000000) scale(0.100000,-0.100000)"
fill="#000000" stroke="none">
<path d="M320 3190 l0 -510 510 0 510 0 0 510 0 510 -510 0 -510 0 0 -510z
m1010 0 l0 -500 -500 0 -500 0 0 500 0 500 500 0 500 0 0 -500z"/>
<path d="M720 3240 c33 -50 63 -97 66 -104 3 -8 -21 -54 -53 -103 -33 -48 -63
-94 -67 -100 -5 -10 2 -13 27 -13 33 0 38 5 82 75 25 41 50 75 55 75 4 0 29
-34 55 -75 43 -70 49 -75 81 -75 26 0 33 3 28 13 -5 6 -34 52 -66 101 -32 48
-58 91 -58 95 0 4 25 42 56 86 82 118 81 115 40 115 -32 0 -38 -5 -81 -75 -26
-41 -50 -75 -54 -74 -3 0 -27 34 -53 75 -44 69 -50 74 -83 74 l-36 0 61 -90z"/>
<path d="M1500 3190 l0 -510 510 0 510 0 0 510 0 510 -510 0 -510 0 0 -510z
m1010 0 l0 -500 -500 0 -500 0 0 500 0 500 500 0 500 0 0 -500z"/>
<path d="M2680 3190 l0 -510 510 0 510 0 0 510 0 510 -510 0 -510 0 0 -510z
m1010 0 l0 -500 -500 0 -500 0 0 500 0 500 500 0 500 0 0 -500z"/>
<path d="M320 2010 l0 -510 510 0 510 0 0 510 0 510 -510 0 -510 0 0 -510z
m1010 0 l0 -500 -500 0 -500 0 0 500 0 500 500 0 500 0 0 -500z"/>
<path d="M768 2148 c-100 -26 -155 -169 -113 -289 30 -83 82 -119 175 -119 94
0 150 40 175 124 29 97 13 180 -44 237 -53 53 -115 68 -193 47z m129 -75 c25
-16 53 -81 53 -121 0 -86 -52 -152 -119 -152 -94 0 -148 112 -105 219 29 74
104 97 171 54z"/>
<path d="M1500 2010 l0 -510 510 0 510 0 0 510 0 510 -510 0 -510 0 0 -510z
m1010 0 l0 -500 -500 0 -500 0 0 500 0 500 500 0 500 0 0 -500z"/>
<path d="M1900 2060 c33 -50 63 -97 66 -104 3 -8 -21 -54 -53 -103 -33 -48
-63 -94 -67 -100 -5 -10 2 -13 27 -13 33 0 38 5 82 75 25 41 50 75 55 75 4 0
29 -34 55 -75 43 -70 49 -75 81 -75 26 0 33 3 28 13 -5 6 -34 52 -66 101 -32
48 -58 91 -58 95 0 4 25 42 56 86 82 118 81 115 40 115 -32 0 -38 -5 -81 -75
-26 -41 -50 -75 -54 -74 -3 0 -27 34 -53 75 -44 69 -50 74 -83 74 l-36 0 61
-90z"/>
<path d="M2680 2010 l0 -510 510 0 510 0 0 510 0 510 -510 0 -510 0 0 -510z
m1010 0 l0 -500 -500 0 -500 0 0 500 0 500 500 0 500 0 0 -500z"/>
<path d="M3128 2148 c-100 -26 -155 -169 -113 -289 30 -83 82 -119 175 -119
94 0 150 40 175 124 29 97 13 180 -44 237 -53 53 -115 68 -193 47z m129 -75
c25 -16 53 -81 53 -121 0 -86 -52 -152 -119 -152 -94 0 -148 112 -105 219 29
74 104 97 171 54z"/>
<path d="M320 830 l0 -510 510 0 510 0 0 510 0 510 -510 0 -510 0 0 -510z
m1010 0 l0 -500 -500 0 -500 0 0 500 0 500 500 0 500 0 0 -500z"/>
<path d="M1500 830 l0 -510 510 0 510 0 0 510 0 510 -510 0 -510 0 0 -510z
m1010 0 l0 -500 -500 0 -500 0 0 500 0 500 500 0 500 0 0 -500z"/>
<path d="M2680 830 l0 -510 510 0 510 0 0 510 0 510 -510 0 -510 0 0 -510z
m1010 0 l0 -500 -500 0 -500 0 0 500 0 500 500 0 500 0 0 -500z"/>
<path d="M3080 880 c33 -50 63 -97 66 -104 3 -8 -21 -54 -53 -103 -33 -48 -63
-94 -67 -100 -5 -10 2 -13 27 -13 33 0 38 5 82 75 25 41 50 75 55 75 4 0 29
-34 55 -75 43 -70 49 -75 81 -75 26 0 33 3 28 13 -5 6 -34 52 -66 101 -32 48
-58 91 -58 95 0 4 25 42 56 86 82 118 81 115 40 115 -32 0 -38 -5 -81 -75 -26
-41 -50 -75 -54 -74 -3 0 -27 34 -53 75 -44 69 -50 74 -83 74 l-36 0 61 -90z"/>
</g>
</svg>
